<?xml version="1.0" standalone="no"?>
<!DOCTYPE svg PUBLIC "-//W3C//DTD SVG 20010904//EN"
 "http://www.w3.org/TR/2001/REC-SVG-20010904/DTD/svg10.dtd">
<svg version="1.0" xmlns="http://www.w3.org/2000/svg"
 width="512.000000pt" height="512.000000pt" viewBox="0 0 512.000000 512.000000"
 preserveAspectRatio="xMidYMid meet">
<metadata>
Created by potrace 1.11, written by Peter Selinger 2001-2013
</metadata>
<g transform="translate(0.000000,512.000000) scale(0.100000,-0.100000)"
fill="#000000" stroke="none">
<path d="M2345 4520 c-66 -11 -188 -54 -239 -84 -23 -13 -69 -49 -103 -79 -49
-44 -70 -56 -109 -62 -67 -10 -94 -26 -130 -77 -27 -37 -84 -149 -84 -164 0
-3 -9 -25 -20 -49 -51 -111 -60 -204 -35 -345 9 -47 20 -155 26 -240 5 -85 13
-178 15 -207 4 -38 2 -58 -10 -75 -18 -25 -22 -191 -6 -263 4 -22 18 -89 30
-150 28 -137 39 -159 101 -198 68 -42 71 -51 109 -291 13 -83 26 -110 85 -176
68 -76 59 -124 -26 -144 -41 -9 -76 -48 -122 -136 -64 -124 -95 -162 -149
-185 -23 -10 -61 -26 -83 -36 -22 -10 -123 -47 -225 -84 -102 -37 -245 -89
-318 -116 -73 -27 -134 -49 -136 -49 -2 0 -46 -20 -97 -44 -52 -24 -137 -60
-189 -81 -192 -75 -260 -113 -331 -186 -94 -98 -121 -152 -122 -244 0 -80 13
-111 60 -142 26 -17 146 -18 2321 -18 l2294 0 29 33 c24 27 29 41 29 85 0 69
-40 207 -75 257 -33 48 -101 94 -215 148 -133 62 -222 103 -260 119 -19 9 -57
26 -85 39 -52 24 -316 124 -395 150 -25 8 -54 19 -65 24 -11 5 -72 27 -135 50
-196 70 -246 99 -357 208 -54 53 -107 114 -117 135 -10 23 -28 42 -44 48 -73
28 -84 90 -27 161 50 62 60 91 85 234 35 200 35 199 77 218 21 9 50 34 66 56
33 47 71 187 87 325 18 148 16 198 -9 240 -25 44 -26 86 -4 185 13 58 17 125
18 295 0 205 -2 225 -24 292 -13 40 -46 109 -75 153 -28 44 -62 99 -76 122
-72 120 -234 223 -435 279 -60 17 -139 39 -175 50 -74 23 -246 33 -325 19z"/>
</g>
</svg>
